
<svg width="770px" height="770px" viewBox="0 0 770 770" version="1.1" xmlns="http://www.w3.org/2000/svg" xmlns:xlink="http://www.w3.org/1999/xlink">
    <g id="Page-1" stroke="none" stroke-width="1" fill="none" fill-rule="evenodd">
        <g id="Group-3">
            <path d="M760,150.285156 L760,717 C760,728.874122 755.187061,739.624122 747.405592,747.405592 C739.624122,755.187061 728.874122,760 717,760 L717,760 L53,760 C41.1258779,760 30.3758779,755.187061 22.5944084,747.405592 C14.8129389,739.624122 10,728.874122 10,717 L10,717 L10,150.285156 L760,150.285156 Z" id="Rectangle" stroke="#1A4480" stroke-width="20" fill="#005DA2"></path>
            <path d="M717,10 C728.874122,10 739.624122,14.8129389 747.405592,22.5944084 C755.187061,30.3758779 760,41.1258779 760,53 L760,53 L760,149.960938 L10,149.960938 L10,53 C10,41.1258779 14.8129389,30.3758779 22.5944084,22.5944084 C30.3758779,14.8129389 41.1258779,10 53,10 L53,10 L717,10 Z" id="Rectangle-Copy" stroke="#1A4480" stroke-width="20" fill="#005DA2"></path>
            <g id="Group-2" transform="translate(69.000000, 63.000000)" fill="#C9C9C9">
                <circle id="Oval" cx="19" cy="19" r="19"></circle>
                <circle id="Oval" cx="87" cy="19" r="19"></circle>
                <circle id="Oval" cx="155" cy="19" r="19"></circle>
            </g>
            <path d="M439.957091,233.544445 C550.061922,235.752406 628.682377,309.113831 639.99231,328.984619 C640.436076,329.758382 640.550456,331.263509 640.335449,333.5 L640.317547,333.676692 L640.310621,333.731027 L640.317547,333.785974 C640.323339,333.839966 640.329306,333.898766 640.335449,333.962666 L640.261621,334.080027 L640.256467,334.112463 C640.234528,334.213415 640.216976,334.223305 640.203813,334.178558 L640.202621,334.176027 L639.41109,335.464657 C622.446711,362.11667 563.66386,408.716106 485.745548,424.903467 C461.982499,449.216509 439.630478,463.825552 422.130379,462.972304 C411.74876,462.466131 418.761184,450.158379 423.803369,431.119977 L423.951621,430.551027 L422.312715,430.504591 C367.950789,428.76862 308.301383,409.81385 249.043823,361.031372 C248.64547,360.703437 247.206933,359.939257 246.079468,361.031372 C169.940918,434.782715 129.424877,428.927091 135.249023,411.208984 C137.864451,403.25238 142.086462,392.066324 146.538567,380.70828 L147.326341,378.702756 C147.457941,378.368412 147.589671,378.034075 147.721494,377.699822 L148.513281,375.695943 C156.246665,356.160143 164.062127,337.447959 164.926688,335.181075 L164.971609,335.060949 C164.983523,335.028139 164.992357,335.002608 164.998047,334.984497 C165.464422,333.5 165.464422,333.5 164.998047,332.186646 C164.531672,330.873291 142.133789,272.256836 135.249023,253.652344 C128.169091,236.613099 158.413096,229.244275 246.475385,304.01641 C247.509277,305.174561 248.619385,304.802246 249.427137,303.977303 C285.986849,275.312634 321.564257,256.87376 355.416001,246.07449 L356.456621,245.744027 L356.28091,244.951088 C350.248739,218.362536 331.074616,193.730817 349.729492,193.047852 C374.378661,192.145431 409.414745,206.608037 439.957091,233.544445 Z M507.375,277.502405 C503.787805,275.431337 499.200877,276.660401 497.129809,280.247595 C483.298828,304.928711 482,326.029437 482,331 C482,331.598074 482.055096,332.182522 482.160392,332.747379 C482.055161,333.313133 482,333.897917 482,334.496343 C482,339.466906 483.298828,360.567632 497.129809,385.248748 C499.200877,388.835942 503.787805,390.065006 507.375,387.993938 C510.962195,385.92287 512.191258,381.335942 510.120191,377.748748 C503.193359,359.102788 499.506836,349.217046 499,334.496343 C499,333.897917 498.944839,333.313133 498.839793,332.747965 C498.944904,332.182522 499,331.598074 499,331 C499.506836,316.279297 503.193359,306.393555 510.120191,287.747595 C512.191258,284.160401 510.962195,279.573473 507.375,277.502405 Z M553.5,301 C544.387302,301 537,308.387302 537,317.5 C537,326.612698 544.387302,334 553.5,334 C562.612698,334 570,326.612698 570,317.5 C570,308.387302 562.612698,301 553.5,301 Z" id="Combined-Shape" fill="#C9C9C9"></path>
            <g id="Group" transform="translate(129.000000, 451.000000)" fill="#C9C9C9">
                <rect id="Rectangle" x="0" y="131" width="89" height="116" rx="8"></rect>
                <rect id="Rectangle" x="140" y="93" width="89" height="154" rx="8"></rect>
                <rect id="Rectangle" x="280" y="46" width="89" height="201" rx="8"></rect>
                <rect id="Rectangle" x="420" y="0" width="89" height="247" rx="8"></rect>
            </g>
        </g>
    </g>
</svg>
